<svg xmlns="http://www.w3.org/2000/svg" xmlns:xlink="http://www.w3.org/1999/xlink"><defs>
        <clipPath id="a">
            <path fill="#fff" transform="rotate(90 21.5 21.5)" d="M0 0h70v24H0z"/>
        </clipPath>
    </defs><symbol id="arrow" viewBox="0 0 92 62"><g fill="none">
    <path d="M40 52.213a29.836 29.836 0 0 0 15.297 8.21 29.76 29.76 0 0 0 17.26-1.707 29.902 29.902 0 0 0 13.408-11.049A30.089 30.089 0 0 0 91 31a30.089 30.089 0 0 0-5.035-16.667 29.902 29.902 0 0 0-13.407-11.05 29.76 29.76 0 0 0-17.262-1.707A29.837 29.837 0 0 0 40 9.786" stroke="currentColor" stroke-width="2" stroke-linecap="round"/>
    <path d="M5 31h60M58 24l7 7-7 7" stroke="currentColor" stroke-width="2" stroke-linecap="round" stroke-linejoin="round"/>
</g></symbol><symbol id="door"><g fill="none">
    <path d="m10 17 5-5-5-5M15 12H3M15 3h4a2 2 0 0 1 2 2v14a2 2 0 0 1-2 2h-4" stroke="#1F1E1E" stroke-width="2" stroke-linecap="round" stroke-linejoin="round"/>
</g></symbol><symbol id="home" viewBox="0 0 24 24"><g fill="none">
    <path d="m20 8-6-5.26a3 3 0 0 0-4 0L4 8a3 3 0 0 0-1 2.26V19a3 3 0 0 0 3 3h12a3 3 0 0 0 3-3v-8.75A3 3 0 0 0 20 8Zm-6 12h-4v-5a1 1 0 0 1 1-1h2a1 1 0 0 1 1 1v5Zm5-1a1 1 0 0 1-1 1h-2v-5a3 3 0 0 0-3-3h-2a3 3 0 0 0-3 3v5H6a1 1 0 0 1-1-1v-8.75a1 1 0 0 1 .34-.75l6-5.25a1 1 0 0 1 1.32 0l6 5.25a1 1 0 0 1 .34.75V19Z" fill="currentColor"/>
    <path d="M19 19a1 1 0 0 1-1 1h-2v-5a3 3 0 0 0-3-3h-2a3 3 0 0 0-3 3v5H6a1 1 0 0 1-1-1v-8.75a1 1 0 0 1 .34-.75l6-5.25a1 1 0 0 1 1.32 0l6 5.25a1 1 0 0 1 .34.75V19Z" fill="currentColor"/>
</g></symbol><symbol id="information"><g fill="none">
    <path fill-rule="evenodd" clip-rule="evenodd" d="M12 23c6.075 0 11-4.925 11-11S18.075 1 12 1 1 5.925 1 12s4.925 11 11 11Zm-1-6.6a1 1 0 0 1 1-1h.011a1 1 0 1 1 0 2H12a1 1 0 0 1-1-1Zm2-8.8a1 1 0 1 0-2 0V12a1 1 0 1 0 2 0V7.6Z" fill="#BC3324"/>
</g></symbol><symbol id="link-vertical" viewBox="0 0 62 92"><g fill="none">
    <path d="M9.787 40a29.837 29.837 0 0 0-8.21 15.297 29.76 29.76 0 0 0 1.707 17.26 29.902 29.902 0 0 0 11.049 13.408A30.089 30.089 0 0 0 31 91a30.089 30.089 0 0 0 16.667-5.035 29.902 29.902 0 0 0 11.05-13.407 29.76 29.76 0 0 0 1.706-17.262A29.836 29.836 0 0 0 52.213 40" stroke="currentColor" stroke-width="2" stroke-linecap="round"/>
    <g clip-path="url(#a)" stroke="currentColor" stroke-width="2" stroke-linecap="round" stroke-linejoin="round">
        <path d="M31 5v60M38 58l-7 7-7-7"/>
    </g>
    
</g></symbol><symbol id="link" viewBox="0 0 92 62"><g fill="none">
    <path d="M40 52.213a29.836 29.836 0 0 0 15.297 8.21 29.76 29.76 0 0 0 17.26-1.707 29.902 29.902 0 0 0 13.408-11.049A30.089 30.089 0 0 0 91 31a30.089 30.089 0 0 0-5.035-16.667 29.902 29.902 0 0 0-13.407-11.05 29.76 29.76 0 0 0-17.262-1.707A29.837 29.837 0 0 0 40 9.786" stroke="currentColor" stroke-width="2" stroke-linecap="round"/>
    <path d="M5 31h60M58 24l7 7-7 7" stroke="currentColor" stroke-width="2" stroke-linecap="round" stroke-linejoin="round"/>
</g></symbol><symbol id="location" viewBox="0 0 24 24"><g fill="none">
    <circle cx="12" cy="12" r="9" fill="currentColor"/>
</g></symbol><symbol id="logo" viewBox="0 0 202 147"><g fill="none">
    <path fill="#1F1E1E" d="M0 0h147v147H0z"/>
    <path d="M39.965 72.439H26.633V50.032H26.6v-.033h-4.686V73h18.051v-.561ZM43.931 73h18.117v-.561h-13.43V61.285H59.11v-.594H48.617V50.56h13.431v-.561H43.931V73ZM70.699 73V50.56c2.87 0 11.715 1.089 12.375 13.893V73h4.686V49.999h-4.686v10.329c-1.42-6.138-5.907-10.329-12.375-10.329h-4.686V73h4.686ZM97.389 73V50.56c2.871 0 11.715 1.089 12.375 13.893V73h4.686V49.999h-4.686v10.329c-1.419-6.138-5.907-10.329-12.375-10.329h-4.686V73h4.686ZM119.393 73h4.686V49.999h-4.686V73Z" fill="#fff"/>
    <path fill="#BC3324" d="M81 92h121v42H81z"/>
    <path d="M108.922 124h.54l2.94-8.55h8.55l3.33 8.55h4.47l-8.1-20.91h-4.53l-7.2 20.91Zm7.5-20.25 4.35 11.19h-8.19l3.84-11.19ZM132.643 103.09V124h4.26v-7.23h5.07l4.89 7.2h4.86l-5.16-7.65c3-.78 5.28-2.64 5.28-6.81 0-5.22-3.81-6.87-8.25-6.87-4.68 0-6.03 3.51-6.69 7.41v-6.96h-4.26Zm5.43 4.38c.81-2.94 2.91-4.14 4.77-4.29 4.47-.42 4.65 2.43 4.65 6.33 0 6.33-3.36 6.75-6.24 6.75h-4.35s-.12-4.14 1.17-8.79ZM162.083 103.6l.03 20.4h4.26v-20.4h8.61v-.51h-21.51v.51h8.61Z" fill="#fff"/>
</g></symbol><symbol id="star" viewBox="0 0 24 24"><g fill="none">
    <path d="M21.663 8.772a1 1 0 0 1 .33.462 1 1 0 0 1-.32 1.02l-4.13 4 1 5.68a1 1 0 0 1-.99 1.19.93.93 0 0 1-.46-.12l-5.1-2.68-5.12 2.67a1 1 0 0 1-1.45-1.07l1-5.68-4.13-4a1 1 0 0 1-.25-1 1 1 0 0 1 .81-.68l5.69-.84 2.55-5.16a1 1 0 0 1 1.8 0l2.55 5.17 5.69.83a1 1 0 0 1 .53.208Z" fill="currentColor"/>
</g></symbol><symbol id="user" viewBox="0 0 20 18"><g fill="none">
    <path d="M11.3 9.22A4.92 4.92 0 0 0 13 5.5a5 5 0 0 0-10 0 4.92 4.92 0 0 0 1.7 3.72A8 8 0 0 0 0 16.5a1 1 0 1 0 2 0 6 6 0 1 1 12 0 1 1 0 0 0 2 0 8 8 0 0 0-4.7-7.28ZM8 8.5a3 3 0 1 1 0-6 3 3 0 0 1 0 6Zm11.71-2.37a1 1 0 0 0-1.42 0l-2 2-.62-.63a1 1 0 1 0-1.42 1.41l1.34 1.34a1 1 0 0 0 1.41 0l2.67-2.67a1 1 0 0 0 .04-1.45Z" fill="currentColor"/>
</g></symbol><symbol id="x" viewBox="0 0 24 24"><g fill="none">
    <path d="M18 6 6 18M6 6l12 12" stroke="currentColor" stroke-width="2" stroke-linecap="round" stroke-linejoin="round"/>
</g></symbol></svg>